<svg xmlns="http://www.w3.org/2000/svg" viewBox="0 0 602.79 744.72"><defs><style>.cls-1{fill:#a51646;}.cls-2{fill:#fe1a55;}.cls-3,.cls-4{fill:#c61749;}.cls-4{stroke:#700f2f;stroke-width:3px;}.cls-4,.cls-8{stroke-miterlimit:10;}.cls-5{fill:#d61a50;}.cls-6{fill:#ff6692;}.cls-7{fill:#99143a;}.cls-8{fill:none;stroke:#56102a;}</style></defs><title>pokedex v4</title><g id="Layer_2" data-name="Layer 2"><path class="cls-1" d="M410,5H400c-12,1-22.41,1.15-32.61,7.73L247.16,90.31C212.33,112.78,173,123,132,123L8,124c-.34,0-7,.69-7,7.18v2.48H131.1c41,2,81.23-9.92,116.06-32.39L367.39,23.69a62.68,62.68,0,0,1,34-10.06h167V8c0-3-2.5-3-5.35-3Z" transform="translate(-1 -5)"/></g><g id="Layer_1" data-name="Layer 1"><path class="cls-2" d="M568.35,749.68H28.55S1,752.19,1,715.87V128.48H131.1A219.61,219.61,0,0,0,247.16,95.31L367.39,20.46a64.33,64.33,0,0,1,34-9.7h167V749.68" transform="translate(-1 -5)"/><path class="cls-3" d="M570.71,73V726.76H27.44S6.45,728.48,1,707v11C1,751.26,28.73,749,28.73,749l538.9,0c3,0,4-.91,4.37-3.66L571.65,51Z" transform="translate(-1 -5)"/><path class="cls-4" d="M544.05,710H41.64S16,712.24,16,679.22V145.06H137.09a208,208,0,0,0,108-30.17L357,46.83A60.88,60.88,0,0,1,388.62,38H544.05V710" transform="translate(-1 -5)"/><rect class="cls-4" x="399.5" y="14.5" width="57" height="7"/><rect class="cls-4" x="486.5" y="14.5" width="57" height="7"/></g><g id="Layer_3" data-name="Layer 3"><path class="cls-5" d="M567.27,727.05H566c-.62,0-1.16,0-1.63,0a3.47,3.47,0,0,1-3.34-3.48V25.83C561,16.2,563.22,14,566,14h1.3a4.94,4.94,0,0,1,5,4.91V722.14A4.94,4.94,0,0,1,567.27,727.05Z" transform="translate(-1 -5)"/></g><g id="Layer_4" data-name="Layer 4"><rect class="cls-2" x="561.35" y="13" width="40.89" height="699.75"/><polygon class="cls-6" points="581.79 716.18 569.01 716.18 569.01 14.27 582 14.01 581.79 716.18"/><rect class="cls-5" x="590.74" y="14.01" width="11.5" height="698.71"/><ellipse class="cls-7" cx="581.79" cy="714.3" rx="20.44" ry="8.94"/><ellipse class="cls-7" cx="581.79" cy="12.94" rx="20.44" ry="8.94"/><path class="cls-8" d="M561.5,106.3s22.74-12.66,42,.94" transform="translate(-1 -5)"/><path class="cls-8" d="M561.5,98.73s22.74-12.66,42,.94" transform="translate(-1 -5)"/><path class="cls-8" d="M561.5,640.88s22.74-12.65,42,1" transform="translate(-1 -5)"/><path class="cls-8" d="M561.5,633.31s22.74-12.65,42,1" transform="translate(-1 -5)"/></g></svg>