<?xml version="1.0" encoding="utf-8"?>
<!-- Generator: Adobe Illustrator 22.0.1, SVG Export Plug-In . SVG Version: 6.00 Build 0)  -->
<svg version="1.1" xmlns="http://www.w3.org/2000/svg" xmlns:xlink="http://www.w3.org/1999/xlink" x="0px" y="0px"
	 viewBox="0 0 602 751" style="enable-background:new 0 0 602 751;" xml:space="preserve">
<style type="text/css">
	.st0{fill:#A51646;}
	.st1{fill:#FE1A55;}
	.st2{fill:#C61749;}
	.st3{fill:#C61749;stroke:#700F2F;stroke-width:3;stroke-miterlimit:10;}
	.st4{fill:#D61A50;}
	.st5{fill:#FF6692;}
	.st6{fill:#99143A;}
	.st7{fill:none;stroke:#56102A;stroke-miterlimit:10;}
	.st8{font-family:'TimesNewRomanPSMT';}
	.st9{font-size:14.1162px;}
	.st10{font-family:'Ketchum';}
</style>
<g id="Layer_2">
	<path class="st0" d="M410,5h-10c-12,1-22.4,1.2-32.6,7.7L247.2,90.3C212.3,112.8,173,123,132,123L8,124c-0.3,0-7,0.7-7,7.2v4.5
		c0,0,0,0,0-2h130.1c41,2,81.2-9.9,116.1-32.4l120.2-77.6c10.2-6.6,22-10.1,34-10.1h0h167c0,0,0,0,0,0V8c0-3-2.5-3-5.3-3H410z"/>
</g>
<g id="Layer_1">
	<path class="st1" d="M568.3,749.7H28.6c0,0-27.6,2.5-27.6-33.8s0-587.4,0-587.4h130.1c41,0,81.2-11.5,116.1-33.2l120.2-74.8
		c10.2-6.3,22-9.7,34-9.7l0,0h167V749.7"/>
	<path class="st2" d="M570.7,73v653.8c0,0,0,0,0,0H27.4h0c0,0-21,1.7-26.4-19.7c0,0,0,11,0,11C1,751.3,28.7,749,28.7,749l538.9,0
		c3,0,4-0.9,4.4-3.7L571.7,51L570.7,73z"/>
	<path class="st3" d="M544,710H41.6c0,0-25.6,2.3-25.6-30.8s0-534.2,0-534.2h121.1c38.2,0,75.6-10.5,108-30.2L357,46.8
		c9.5-5.8,20.4-8.8,31.6-8.8h0H544V710"/>
	<rect x="400.5" y="19.5" class="st3" width="57" height="7"/>
	<rect x="487.5" y="19.5" class="st3" width="57" height="7"/>
</g>
<g id="Layer_3">
	<path class="st4" d="M567.3,727.1H566c-0.6,0-1.2,0-1.6,0c-1.9-0.1-3.3-1.6-3.3-3.5V25.8c0-9.6,2.2-11.8,5-11.8h1.3
		c2.7,0,5,2.2,5,4.9v703.2C572.2,724.9,570,727.1,567.3,727.1z"/>
</g>
<g id="Layer_4">
	<g>
		<rect x="562.3" y="18" class="st1" width="40.9" height="699.7"/>
	</g>
	<polygon class="st5" points="582.8,721.2 570,721.2 570,19.3 583,19 	"/>
	<rect x="591.7" y="19" class="st4" width="11.5" height="698.7"/>
	<ellipse class="st6" cx="582.8" cy="719.3" rx="20.4" ry="8.9"/>
	<ellipse class="st6" cx="582.8" cy="17.9" rx="20.4" ry="8.9"/>
	<path class="st7" d="M561.5,106.3c0,0,22.7-12.7,42,0.9"/>
	<path class="st7" d="M561.5,98.7c0,0,22.7-12.7,42,0.9"/>
	<path class="st7" d="M561.5,640.9c0,0,22.7-12.7,42,0.9"/>
	<path class="st7" d="M561.5,633.3c0,0,22.7-12.7,42,0.9"/>
	<text transform="matrix(1 0 0 1 16.0005 140.3789)"><tspan x="0" y="0" class="st8 st9">Monsterdex</tspan><tspan x="72.8" y="0" class="st10 st9"> </tspan></text>
</g>
</svg>
