<svg xmlns="http://www.w3.org/2000/svg" viewBox="0 0 608.79 768.33"><defs><style>.cls-1{fill:#a51646;}.cls-2{fill:#fe1a55;}.cls-3{fill:#ff6692;}.cls-4{fill:#d61a50;}.cls-5,.cls-6{fill:#c61749;}.cls-6{stroke:#700f2f;stroke-width:3px;}.cls-6,.cls-8{stroke-miterlimit:10;}.cls-7{fill:#99143a;}.cls-8{fill:none;stroke:#56102a;}</style></defs><title>Asset 1</title><g id="Layer_2" data-name="Layer 2"><g id="Layer_1-2" data-name="Layer 1"><path class="cls-1" d="M400.36,0h0a62.68,62.68,0,0,0-34,10.06L246.16,87.64A213.94,213.94,0,0,1,130.1,122H6.26A6.05,6.05,0,0,0,0,128.52V148H130.1A213.86,213.86,0,0,0,246.16,113.6L366.39,36a62.61,62.61,0,0,1,34-10.07h167V5.35A5.27,5.27,0,0,0,562.18,0Z"/><rect class="cls-2" x="567.35" y="23.6" width="40.89" height="714.2"/><polygon class="cls-3" points="587.79 747.79 575.01 747.79 575.01 33.6 588 33.33 587.79 747.79"/><rect class="cls-4" x="596.74" y="23.33" width="11.5" height="714.46"/><path class="cls-2" d="M567.35,753H27.55S0,755.52,0,719.2V131.82H130.1A219.53,219.53,0,0,0,246.16,98.64L366.39,23.8a64.25,64.25,0,0,1,34-9.71h167V753"/><path class="cls-5" d="M566.07,29.37V744H26.28S5.41,745.9,0,722.45v12C0,770.8,27.55,768.3,27.55,768.3l535.45,0c3,0,4-1,4.35-4L567,5.33Z"/><path class="cls-6" d="M541.05,727.46H52.49s-24.94,2.27-24.94-30.61V165.23H145.3a198.79,198.79,0,0,0,105-30L359.17,67.46a58.17,58.17,0,0,1,30.74-8.79H541.05V727.46"/><ellipse class="cls-7" cx="587.79" cy="738.63" rx="20.44" ry="8.94"/><ellipse class="cls-7" cx="587.79" cy="21.28" rx="20.44" ry="8.94"/><path class="cls-8" d="M566.5,110.8s22.74-13,42,1"/><path class="cls-8" d="M566.5,103s22.74-13,42,1"/><path class="cls-8" d="M566.5,659s22.74-13,42,1"/><path class="cls-8" d="M566.5,651.21s22.74-13,42,1"/></g></g></svg>